<svg width="81" height="81" viewBox="0 0 81 81" fill="none" xmlns="http://www.w3.org/2000/svg">
<circle cx="40.5" cy="40.5" r="40.5" fill="#004040"/>
<path d="M27.31 32C27.41 32.02 27.52 32.03 27.64 32.03C27.76 32.03 27.87 32.03 27.97 32.03C28.81 32.03 29.51 31.87 30.07 31.55C30.65 31.23 31.11 30.79 31.45 30.23C31.81 29.67 32.06 29.01 32.2 28.25C32.36 27.47 32.44 26.62 32.44 25.7C32.44 24.9 32.38 24.12 32.26 23.36C32.14 22.6 31.93 21.93 31.63 21.35C31.33 20.77 30.92 20.31 30.4 19.97C29.88 19.61 29.21 19.43 28.39 19.43C28.23 19.43 28.05 19.44 27.85 19.46C27.65 19.46 27.47 19.48 27.31 19.52V32ZM36.19 25.7C36.19 27.42 35.97 28.89 35.53 30.11C35.11 31.31 34.52 32.29 33.76 33.05C33 33.81 32.09 34.37 31.03 34.73C29.99 35.07 28.84 35.24 27.58 35.24C26.92 35.24 26.27 35.2 25.63 35.12C25.01 35.06 24.34 34.95 23.62 34.79V16.67C24.46 16.49 25.25 16.37 25.99 16.31C26.73 16.25 27.42 16.22 28.06 16.22C29.28 16.22 30.39 16.4 31.39 16.76C32.41 17.12 33.27 17.69 33.97 18.47C34.67 19.23 35.21 20.21 35.59 21.41C35.99 22.59 36.19 24.02 36.19 25.7ZM46.87 35V31.94H50.92V19.49H46.87V16.43H58.66V19.49H54.64V31.94H58.66V35H46.87ZM32.65 66C31.81 63.94 30.89 61.89 29.89 59.85C28.91 57.79 27.85 55.73 26.71 53.67V66H23.38V47.43H26.35C26.91 48.31 27.47 49.27 28.03 50.31C28.59 51.33 29.13 52.35 29.65 53.37C30.19 54.39 30.68 55.38 31.12 56.34C31.58 57.3 31.97 58.14 32.29 58.86V47.43H35.62V66H32.65ZM56.02 66L55.15 61.71H50.2L49.36 66H45.52C46.4 62.34 47.29 59.01 48.19 56.01C49.09 52.99 49.96 50.13 50.8 47.43H54.82C55.7 50.15 56.57 53.04 57.43 56.1C58.31 59.14 59.16 62.44 59.98 66H56.02ZM52.72 51.03C52.52 51.73 52.33 52.4 52.15 53.04C51.99 53.66 51.83 54.28 51.67 54.9C51.53 55.5 51.39 56.11 51.25 56.73C51.13 57.35 51.01 57.99 50.89 58.65H54.52C54.4 57.99 54.28 57.35 54.16 56.73C54.04 56.11 53.9 55.5 53.74 54.9C53.6 54.28 53.44 53.66 53.26 53.04C53.1 52.4 52.92 51.73 52.72 51.03Z" fill="#5FCC9C"/>
</svg>
